/vscmnt/brussel_pixiu_data/_data_brussel/112/vsc11236/PredSimResults/SUBJ04opt3D/weighted/expIG/worker_05.mot
version=1
nRows=4
nColumns=50
inDegrees=yes
endheader
                time	         pelvis_tilt	         pelvis_list	     pelvis_rotation	           pelvis_tx	           pelvis_ty	           pelvis_tz	       hip_flexion_r	     hip_adduction_r	      hip_rotation_r	        knee_angle_r	       ankle_angle_r	         mtp_angle_r	       hip_flexion_l	     hip_adduction_l	      hip_rotation_l	        knee_angle_l	       ankle_angle_l	         mtp_angle_l	    lumbar_extension	      lumbar_bending	     lumbar_rotation	 ercspn_r/activation	 intobl_r/activation	 extobl_r/activation	    abd_r/activation	    add_r/activation	hamstrings_r/activation	bifemsh_r/activation	glut_max_r/activation	iliopsoas_r/activation	rect_fem_r/activation	  vasti_r/activation	gastroc_r/activation	 soleus_r/activation	tib_ant_r/activation	 ercspn_l/activation	 intobl_l/activation	 extobl_l/activation	    abd_l/activation	    add_l/activation	hamstrings_l/activation	bifemsh_l/activation	glut_max_l/activation	iliopsoas_l/activation	rect_fem_l/activation	  vasti_l/activation	gastroc_l/activation	 soleus_l/activation	tib_ant_l/activation	
          1.33124364	         -1.13495224	          0.31793180	          6.79710478	          1.14486953	          0.88549200	         -0.00871764	         27.39943885	         -2.16974202	         -6.33445466	         -9.52231972	          3.98711796	          0.23505392	        -12.03874315	          0.11049468	         -5.87793825	         -6.24481620	         14.49904442	         16.69272624	        -14.25982874	         -4.47255314	         -8.09739495	          0.05795172	          0.24422290	          0.02303821	          0.01001133	          0.26386328	          0.06458401	          0.03470866	          0.01220854	          0.18739446	          0.03804615	          0.04996634	          0.01000369	          0.01000130	          0.34306428	          0.01001102	          0.01000116	          0.01000161	          0.09063037	          0.01002103	          0.03055798	          0.35207814	          0.01952896	          0.01609136	          0.01001014	          0.01000686	          0.28575616	          0.24613626	          0.01494826	
          1.34455608	         -1.24005388	          0.31705647	          6.55971639	          1.15955086	          0.88307317	         -0.00824099	         27.53789535	         -1.93814184	         -6.24377295	        -11.05707163	          3.84269674	          0.23282478	        -12.72144395	          0.04606468	         -6.51343020	         -6.70573194	         14.49399971	         17.98857035	        -13.77319663	         -3.82885165	         -8.22978383	          0.04743700	          0.22478087	          0.01885519	          0.01000041	          0.36243493	          0.06998018	          0.02871718	          0.01000249	          0.15336704	          0.03113814	          0.04089506	          0.01496949	          0.01836056	          0.33013756	          0.02843659	          0.01000103	          0.01000100	          0.07417388	          0.01001871	          0.02502439	          0.34390341	          0.01598498	          0.01787631	          0.01085362	          0.01000546	          0.28657783	          0.25926173	          0.01223414	
          1.35786852	         -1.32985272	          0.25869125	          6.28978054	          1.17469464	          0.88073715	         -0.00774044	         27.57698072	         -1.70189735	         -6.03194929	        -12.68013873	          3.68923828	          0.22430463	        -13.36697055	         -0.07921262	         -7.18985485	         -7.31519216	         14.42111055	         19.37791534	        -13.24024696	         -3.09338267	         -8.33805343	          0.03882459	          0.22791107	          0.01543186	          0.01000404	          0.29664460	          0.07904579	          0.02352864	          0.01361702	          0.12551820	          0.02548441	          0.03347601	          0.01225661	          0.01502811	          0.34944515	          0.02327616	          0.01000129	          0.01000362	          0.06070548	          0.01002540	          0.04419741	          0.31507684	          0.01435081	          0.01463460	          0.01000706	          0.01000679	          0.27678025	          0.26617704	          0.01001300	
          1.37118095	         -1.40590443	          0.12842593	          5.97994465	          1.19012605	          0.87863033	         -0.00715601	         27.54083781	         -1.41244991	         -5.90545876	        -14.15275204	          3.32810056	          0.21405355	        -13.91748257	         -0.28752568	         -7.91679809	         -8.15193356	         14.26217352	         20.86122162	        -12.68410797	         -2.25740486	         -8.41212228	          0.03177659	          0.18655878	          0.01263028	          0.01000698	          0.24320652	          0.09154132	          0.01928281	          0.01116376	          0.10272623	          0.02085730	          0.09459911	          0.01003601	          0.01230029	          0.37278943	          0.02001573	          0.01000096	          0.01000281	          0.04968264	          0.01002195	          0.05005827	          0.26372173	          0.01250380	          0.01198587	          0.01000478	          0.01000435	          0.24637057	          0.26404449	          0.01000096	
